# File created by Blade
# Date/Time:  Thu Sep 25 19:04:16 2014
# Frame Rate: 120.000 fps
#------------------------------------------------------
:FULLY-SPECIFIED
:DEGREES
2069
root 7.726045 16.773994 -11.792282 56.422094 35.389309 4.388061
Spine 16.783400 18.350098 5.392214
Head -68.345821 -31.448789 29.004733
LeftShoulder -5.684446 4.273783 29.047337
LeftArm 19.467110 -26.073273 -35.915230
LeftForeArm 6.687474 -0.000000 29.872025
LeftHand -35.961532 -0.000000 22.864076
LeftHandThumb1 -26.253704 0.000000 33.147579
RightShoulder -1.070086 31.904212 -27.631450
RightArm 26.099837 -33.800055 67.707210
RightForeArm -35.966755 -0.000000 36.161401
RightHand -1.688118 -0.000000 -39.975127
RightHandThumb1 -24.326973 -0.000000 -32.862282
LeftUpLeg -142.301612 14.989528 -19.448955
LeftLeg 104.035261 -0.000000 -0.000000
LeftFoot -17.945375 -23.771156 -11.797139
LeftToeBase 2.801930 -0.000000 -0.000000
RightUpLeg -19.079494 -58.657091 -41.042984
RightLeg 9.152269 -0.000000 -0.000000
RightFoot 3.875024 -21.554073 25.459001
RightToeBase 12.947900 -0.000000 -0.000000
2070
root 7.729527 16.817860 -11.729493 56.148100 35.753335 4.090245
Spine 16.314379 17.944448 4.791179
Head -68.548913 -31.344905 29.736662
LeftShoulder -5.290288 3.667039 29.519532
LeftArm 20.043787 -26.294074 -35.474877
LeftForeArm 7.245422 -0.000000 30.648919
LeftHand -36.005098 -0.000000 22.806751
LeftHandThumb1 -26.253704 0.000000 33.147579
RightShoulder -1.278945 32.065468 -27.725347
RightArm 25.680549 -34.493151 67.256525
RightForeArm -35.657807 -0.000000 37.304880
RightHand -1.632252 -0.000000 -39.972439
RightHandThumb1 -24.326973 -0.000000 -32.862282
LeftUpLeg -142.160083 15.128199 -19.312077
LeftLeg 103.955550 -0.000000 -0.000000
LeftFoot -17.874665 -23.968493 -11.713564
LeftToeBase 2.678669 -0.000000 -0.000000
RightUpLeg -18.855677 -57.877185 -40.949703
RightLeg 9.589834 -0.000000 -0.000000
RightFoot 3.731056 -22.266380 26.068006
RightToeBase 12.805400 -0.000000 -0.000000
2071
root 7.732679 16.867338 -11.670072 55.858956 36.118176 3.801348
Spine 15.907324 17.439931 4.197071
Head -68.744439 -31.098289 30.465962
LeftShoulder -5.020687 3.136814 30.026731
LeftArm 20.691036 -26.521050 -35.123610
LeftForeArm 7.655266 -0.000000 31.497615
LeftHand -36.357006 0.000000 22.681009
LeftHandThumb1 -26.253704 0.000000 33.147579
RightShoulder -1.391745 32.124160 -27.867586
RightArm 25.312471 -35.084276 66.722648
RightForeArm -35.227511 -0.000000 38.622490
RightHand -1.424622 -0.000000 -39.863962
RightHandThumb1 -24.326973 -0.000000 -32.862282
LeftUpLeg -141.962422 15.259024 -19.147492
LeftLeg 103.837073 -0.000000 -0.000000
LeftFoot -17.795268 -24.139818 -11.746039
LeftToeBase 2.569851 -0.000000 -0.000000
RightUpLeg -18.634457 -57.106735 -40.872987
RightLeg 10.037537 -0.000000 -0.000000
RightFoot 3.591464 -23.018252 26.873344
RightToeBase 12.730209 -0.000000 -0.000000
2072
root 7.740302 16.921605 -11.608883 55.541348 36.506472 3.468023
Spine 15.482034 16.968842 3.680888
Head -68.910703 -30.868577 31.207249
LeftShoulder -4.710000 2.625058 30.557125
LeftArm 21.366458 -26.968937 -34.994742
LeftForeArm 8.478788 0.000000 32.472918
LeftHand -36.370015 -0.000000 22.075847
LeftHandThumb1 -26.253704 0.000000 33.147579
RightShoulder -1.500882 31.983779 -28.003256
RightArm 25.096541 -35.752999 65.892275
RightForeArm -34.647995 0.000000 40.187416
RightHand -1.704158 -0.000000 -39.693897
RightHandThumb1 -24.326973 -0.000000 -32.862282
LeftUpLeg -141.763213 15.394669 -18.947856
LeftLeg 103.734765 -0.000000 -0.000000
LeftFoot -17.745012 -24.257496 -11.759238
LeftToeBase 2.559981 -0.000000 -0.000000
RightUpLeg -18.459339 -56.371461 -40.681997
RightLeg 10.402302 -0.000000 -0.000000
RightFoot 3.556437 -23.834682 27.763971
RightToeBase 12.541687 -0.000000 -0.000000
2073
root 7.745391 16.986330 -11.547946 55.183225 36.732680 3.019990
Spine 15.068204 16.728331 3.053675
Head -69.162702 -30.624575 32.057822
LeftShoulder -4.358981 2.100646 31.141441
LeftArm 22.063292 -27.185727 -34.719321
LeftForeArm 9.411059 -0.000000 33.275720
LeftHand -36.288077 0.000000 21.806514
LeftHandThumb1 -26.253704 0.000000 33.147579
RightShoulder -1.662027 31.877891 -28.193124
RightArm 24.617806 -36.060438 65.425670
RightForeArm -34.155269 -0.000000 41.785093
RightHand -1.365655 -0.000000 -39.093167
RightHandThumb1 -24.326973 -0.000000 -32.862282
LeftUpLeg -141.618374 15.693436 -18.837111
LeftLeg 103.617435 -0.000000 -0.000000
LeftFoot -17.638335 -24.458648 -11.792949
LeftToeBase 2.263233 -0.000000 -0.000000
RightUpLeg -18.634539 -55.616908 -40.294196
RightLeg 10.787227 -0.000000 -0.000000
RightFoot 3.702184 -24.584288 28.373231
RightToeBase 12.397394 -0.000000 -0.000000
2074
root 7.757174 17.055938 -11.489966 54.865837 37.086125 2.655555
Spine 14.647989 16.323127 2.587889
Head -69.304178 -30.360219 32.737329
LeftShoulder -4.009775 1.544928 31.654062
LeftArm 22.739813 -27.373208 -34.430370
LeftForeArm 10.232302 -0.000000 34.102642
LeftHand -36.122534 -0.000000 21.300996
LeftHandThumb1 -26.253704 0.000000 33.147579
RightShoulder -1.931561 31.713148 -28.366558
RightArm 24.482245 -36.716028 64.457754
RightForeArm -33.695002 -0.000000 43.417703
RightHand -1.725027 -0.000000 -38.899058
RightHandThumb1 -24.326973 -0.000000 -32.862282
LeftUpLeg -141.383902 15.843016 -18.591061
LeftLeg 103.464789 -0.000000 -0.000000
LeftFoot -17.671359 -24.601494 -11.676098
LeftToeBase 2.504210 -0.000000 -0.000000
RightUpLeg -18.653819 -55.097687 -39.954786
RightLeg 11.108001 -0.000000 -0.000000
RightFoot 4.160974 -25.218386 28.689813
RightToeBase 12.340878 -0.000000 -0.000000
2075
root 7.773652 17.132539 -11.441949 54.644590 37.445334 2.407606
Spine 14.210389 15.785882 2.112510
Head -69.458077 -30.101672 33.359417
LeftShoulder -3.685391 1.121791 32.106222
LeftArm 23.442233 -27.542471 -34.041211
LeftForeArm 11.108660 -0.000000 34.917434
LeftHand -35.712919 -0.000000 20.480644
LeftHandThumb1 -26.253704 0.000000 33.147579
RightShoulder -2.206213 31.467186 -28.613122
RightArm 24.443848 -37.313522 63.469357
RightForeArm -33.478968 -0.000000 45.009666
RightHand -1.977091 -0.000000 -38.842092
RightHandThumb1 -24.326973 -0.000000 -32.862282
LeftUpLeg -141.100085 15.888347 -18.367123
LeftLeg 103.279606 -0.000000 -0.000000
LeftFoot -17.601748 -24.769310 -11.676612
LeftToeBase 2.256596 -0.000000 -0.000000
RightUpLeg -18.616413 -54.617705 -39.760884
RightLeg 11.452907 -0.000000 -0.000000
RightFoot 4.794298 -25.882445 28.933697
RightToeBase 12.132621 -0.000000 -0.000000
2076
root 7.791560 17.213706 -11.393847 54.347185 37.772925 2.061383
Spine 13.826947 15.387561 1.703158
Head -69.665086 -29.825340 34.030333
LeftShoulder -3.337314 0.590437 32.590674
LeftArm 24.111388 -27.594434 -33.655970
LeftForeArm 11.754280 -0.000000 35.729072
LeftHand -35.666388 -0.000000 19.920546
LeftHandThumb1 -26.253704 0.000000 33.147579
RightShoulder -2.623078 31.189515 -28.900904
RightArm 24.433073 -37.913561 62.441423
RightForeArm -33.278848 -0.000000 46.595876
RightHand -2.100772 -0.000000 -38.403419
RightHandThumb1 -24.326973 -0.000000 -32.862282
LeftUpLeg -140.813847 16.006683 -18.085353
LeftLeg 103.076581 -0.000000 -0.000000
LeftFoot -17.620358 -24.899254 -11.604201
LeftToeBase 2.330968 -0.000000 -0.000000
RightUpLeg -18.707802 -54.167351 -39.465872
RightLeg 11.820746 -0.000000 -0.000000
RightFoot 5.743253 -26.491125 28.881090
RightToeBase 11.983321 -0.000000 -0.000000
2077
root 7.821436 17.298209 -11.354794 54.101594 38.150329 1.778637
Spine 13.403365 14.831475 1.419094
Head -69.802268 -29.653148 34.489514
LeftShoulder -2.971184 0.099597 32.956068
LeftArm 24.674523 -27.573903 -33.152600
LeftForeArm 12.670144 0.000000 36.527938
LeftHand -35.716621 -0.000000 18.992843
LeftHandThumb1 -26.253704 0.000000 33.147579
RightShoulder -3.045684 30.528218 -29.172186
RightArm 25.001281 -38.424858 61.041707
RightForeArm -33.039631 0.000000 48.007175
RightHand -1.993089 -0.000000 -38.386145
RightHandThumb1 -24.326973 -0.000000 -32.862282
LeftUpLeg -140.488613 15.989989 -17.764892
LeftLeg 102.884792 -0.000000 -0.000000
LeftFoot -17.679143 -24.880201 -11.497369
LeftToeBase 2.218179 -0.000000 -0.000000
RightUpLeg -18.708265 -53.801591 -39.257693
RightLeg 12.136649 -0.000000 -0.000000
RightFoot 7.068722 -27.011632 28.525144
RightToeBase 11.969939 -0.000000 -0.000000
2078
root 7.852649 17.398104 -11.326761 53.881332 38.401910 1.435824
Spine 12.938001 14.362352 1.059073
Head -69.945358 -29.453722 34.985651
LeftShoulder -2.623156 -0.284857 33.320098
LeftArm 25.263883 -27.592297 -32.666323
LeftForeArm 13.161590 -0.000000 37.385517
LeftHand -35.703062 0.000000 18.310488
LeftHandThumb1 -26.253704 0.000000 33.147579
RightShoulder -3.582935 29.610666 -29.331228
RightArm 26.151905 -38.882208 59.227693
RightForeArm -32.804033 -0.000000 49.287890
RightHand -2.048127 -0.000000 -38.382069
RightHandThumb1 -24.326973 -0.000000 -32.862282
LeftUpLeg -140.197597 16.022280 -17.505501
LeftLeg 102.652638 -0.000000 -0.000000
LeftFoot -17.852822 -24.766305 -11.273757
LeftToeBase 2.219874 -0.000000 -0.000000
RightUpLeg -18.838949 -53.150347 -39.056357
RightLeg 12.365567 -0.000000 -0.000000
RightFoot 8.565381 -27.619125 28.065073
RightToeBase 11.997916 -0.000000 -0.000000
2079
root 7.890660 17.500806 -11.295699 53.572430 38.592204 1.020581
Spine 12.521274 13.939459 0.754898
Head -70.072853 -29.238206 35.383059
LeftShoulder -2.225203 -0.687967 33.622400
LeftArm 25.687679 -27.589472 -32.100298
LeftForeArm 13.475469 -0.000000 38.293572
LeftHand -35.570195 0.000000 17.765423
LeftHandThumb1 -26.253704 0.000000 33.147579
RightShoulder -4.039406 29.568687 -29.665598
RightArm 26.005833 -39.495702 58.485059
RightForeArm -32.955479 -0.000000 50.463521
RightHand -2.058573 0.000000 -38.452840
RightHandThumb1 -24.326973 -0.000000 -32.862282
LeftUpLeg -139.889454 16.175814 -17.243511
LeftLeg 102.449269 -0.000000 -0.000000
LeftFoot -17.927637 -24.794149 -11.127627
LeftToeBase 2.052957 -0.000000 -0.000000
RightUpLeg -19.093709 -52.665205 -38.767123
RightLeg 12.547407 -0.000000 -0.000000
RightFoot 10.857366 -27.995734 26.591777
RightToeBase 11.759949 -0.000000 -0.000000
